<?xml version="1.0" encoding="UTF-8"?>
<svg id="Layer_2" data-name="Layer 2" xmlns="http://www.w3.org/2000/svg" viewBox="0 0 21.6 3.38">
  <defs>
    <style>
      .cls-1 {
        fill: #964015;
      }
    </style>
  </defs>
  <g id="Layer_1-2" data-name="Layer 1">
    <g id="BglD8h.tif">
      <g>
        <path class="cls-1" d="M.98,1.2s.05.05.06.05c.22.06.33-.51.55-.31.19.18.1.63.07.86-.01.12.02.21-.05.33-.07.1-.16.1-.25.01-.09-.09-.02-.23-.13-.33-.05-.05-.22-.09-.26-.04-.06.07-.05.32-.04.41.02.24.08.42.35.45.13.02.43,0,.52-.09.11-.1.06-.28.17-.37s.27-.08.29.08c.01.13.02.46,0,.58-.01.09-.07.15-.16.16-.33.03-.79,0-1.12-.02-.11,0-.58,0-.64-.05-.01,0-.03-.04-.02-.06.03-.08.24-.07.26-.1.05-.06.04-.53.04-.64-.01-.24-.07-.49-.07-.73,0-.14.04-.28.02-.43-.06-.3-.19-.21-.4-.28C.02.66-.01.6,0,.46s.15-.1.24-.11c.57-.06,1.22-.08,1.79-.03.11,0,.21.01.27.12,0,.21.04.49,0,.69-.02.12-.14.15-.24.13-.2-.04-.07-.39-.25-.48-.05-.03-.36-.07-.43-.07-.14,0-.33-.02-.41.11-.07.11-.05.28,0,.39Z"/>
        <path class="cls-1" d="M4.72,2.9c-.1.08-.21,0-.31-.02-.06-.01-.18,0-.22-.03-.03-.02-.03-.1-.09-.1-.04,0-.21.09-.27.11-.29.08-.47.04-.66-.2-.32-.39-.45-1.24-.03-1.6.11-.1.41-.23.55-.24.08,0,.19.04.25.04.07,0,.05-.11,0-.15-.13-.09-.3.01-.44-.14s-.08-.37.14-.39c.14-.01.32,0,.47-.02.09,0,.32-.09.36.03,0,.1.02.21.02.31.03.6-.09,1.23-.07,1.84.03.28.25.1.36.28.06.09.04.23-.05.29ZM3.65,1.21c-.19,0-.4.3-.43.47s0,.61.12.75c.06.07.24.18.33.18.16,0,.35-.26.4-.4.08-.2.06-.27,0-.47-.04-.13-.12-.34-.22-.43-.03-.03-.16-.09-.2-.09Z"/>
        <path class="cls-1" d="M7.86,0c.04.06.09.08.12.15.07.14.11.52.27.54.15.02.65-.08.47.26-.11.2-.33.14-.49.2-.09.03-.13.19-.14.28-.03.21.01.75.1.95.02.04.07.09.12.08.12-.03.14-.37.19-.48.07-.15.27-.25.4-.1.09.11.03.31-.03.43-.05.1-.35.49-.44.51-.06.01-.23,0-.29,0-.29-.05-.43-.32-.49-.58l-.18-1.02c-.04-.06-.36.02-.47-.12-.06-.07-.08-.21-.02-.29.09-.14.21-.06.33-.09.16-.04.16-.46.27-.6,0-.01.1-.1.1-.1.02,0,.16,0,.17,0Z"/>
        <path class="cls-1" d="M21.43,2.61c.28.05.19.34-.04.4h-1.25c-.1,0-.21-.14-.11-.22.04-.04.19-.04.27-.08.19-.12.18-.42.2-.62.04-.4.05-.8,0-1.2-.05-.34-.35-.19-.56-.29-.2-.09-.02-.23.13-.27.32-.07.82-.07.86.35.06.6,0,1.26.03,1.87,0,.02.01.06.03.06.13,0,.34-.02.45,0Z"/>
        <path class="cls-1" d="M18.35.31c.5-.07.82.43.89.86.06.32.07.55,0,.87-.1.41-.22.72-.63.9-.1.04-.15.08-.26.05-.22-.05-.53-.21-.65-.41-.44-.74-.41-2.13.66-2.28ZM18.67,2.73c.18-.16.34-.48.34-.72,0-.2-.06-.89-.13-1.06-.06-.16-.35-.3-.52-.3-.28,0-.69.26-.68.57,0,.07.04.15.05.22.04.32.05.75.16,1.04.1.26.56.43.78.24Z"/>
        <path class="cls-1" d="M14.6,2.95c.03-.05-.02-.45-.03-.54-.02-.17,0-.3-.11-.46-.13-.2-.54-.03-.64.14s-.09.66-.05.86c.01.08.24.18.08.25-.05.02-.5.02-.53-.02-.05-.08.06-.14.08-.19.06-.11.04-.24.04-.36.02-.27.04-.57.02-.84-.02-.18-.15-.06-.19-.16-.09-.2.26-.19.38-.15.07.03.1.14.15.15l.42-.15c.26-.05.61.05.64.35.04.33-.03.72,0,1.05.02.08.3.23.18.33-.07.06-.5,0-.62,0-.08-.04-.13-.18-.03-.23.05-.02.16,0,.19-.07Z"/>
        <path class="cls-1" d="M11.52,3.15c-.17-.15-.23-.3-.24-.52-.03-.4.07-.77.45-.97.27-.14.73-.16.88.15.11.23.14.76.08,1-.16.58-.73.73-1.17.33ZM12.27,2.25c-.13-.13-.31-.21-.49-.13s-.34.35-.32.53c.01.09.14.31.21.37.27.24.65.14.74-.21.04-.16-.02-.44-.14-.56Z"/>
        <path class="cls-1" d="M10.32,3.04s.27.05.35.1c.06.04.07.15,0,.17-.04.01-.23.05-.28.05-.2.02-.53.03-.74.02-.11,0-.24-.05-.21-.19.04-.16.4-.01.49-.11.05-.06,0-.25.06-.34l-.06-.71c-.06-.14-.45.02-.52-.18s.3-.19.43-.2c.09-.01.13-.04.24-.03.27.02.33.11.31.38-.02.28-.11.58-.12.87,0,.04.01.16.04.19Z"/>
        <path class="cls-1" d="M5.33,2.48c.07-.07.43.05.49-.09,0-.24.02-.49,0-.73,0-.06-.01-.17-.02-.23-.04-.25-.47-.02-.54-.25-.06-.2.31-.18.45-.2.09-.01.12-.04.23-.03.24.02.3.09.3.32,0,.28-.1.58-.12.85-.03.38.14.23.37.34.09.04.11.14.02.18-.03.01-.22.05-.27.05-.07,0-.19.02-.27.02-.11,0-.56.01-.63-.03-.06-.04-.08-.17-.03-.22Z"/>
        <path class="cls-1" d="M5.8.39c.3-.05.47.37.14.5-.38.15-.45-.45-.14-.5Z"/>
        <path class="cls-1" d="M9.93,1.04c.15-.03.33.1.34.26s-.23.32-.38.26c-.21-.08-.18-.48.04-.51Z"/>
      </g>
    </g>
  </g>
</svg>