<?xml version="1.0" encoding="UTF-8"?>
<svg id="Layer_2" data-name="Layer 2" xmlns="http://www.w3.org/2000/svg" viewBox="0 0 64.96 11.79">
  <defs>
    <style>
      .cls-1 {
        fill: #964015;
      }
    </style>
  </defs>
  <g id="Layer_1-2" data-name="Layer 1">
    <path class="cls-1" d="M64.96,7.86c0,1.08-.39,1.93-1.16,2.54-.77.62-1.62.92-2.54.92-4.62,0-9.25-.42-13.87-1.27-4.62-.85-9.25-1.27-13.87-1.27s-8.98.5-13.52,1.5c-4.55,1-9.05,1.5-13.52,1.5-1.23,0-2.62-.12-4.16-.35-1.54-.23-2.31-1.19-2.31-2.89,0-.92.31-1.62.92-2.08.61-.46,1.31-.85,2.08-1.16.31-.15,1.54-.38,3.7-.69,2.16-.31,4.78-.65,7.86-1.04,3.08-.38,6.39-.81,9.94-1.27,3.54-.46,6.93-.84,10.17-1.16,3.24-.31,6.05-.58,8.44-.81,2.39-.23,3.97-.35,4.74-.35,1.23,0,2.81.12,4.74.35,1.92.23,3.81.62,5.66,1.16,1.85.54,3.43,1.31,4.74,2.31,1.31,1,1.96,2.35,1.96,4.04Z"/>
  </g>
</svg>