<?xml version="1.0" encoding="UTF-8"?>
<svg id="Layer_2" data-name="Layer 2" xmlns="http://www.w3.org/2000/svg" viewBox="0 0 14.29 14.15">
  <defs>
    <style>
      .cls-1 {
        fill: #964015;
        stroke: #964015;
        stroke-miterlimit: 10;
        stroke-width: .25px;
      }
    </style>
  </defs>
  <g id="Layer_1-2" data-name="Layer 1">
    <g id="cNZlWb.tif">
      <g>
        <path class="cls-1" d="M3.44,3.12c.51.23.53,1.3.47,1.78-.13.94-.48,1.68-.88,2.51-.17.35-.4.93-.64,1.2-.03.04-.16.16-.21.13-.14-.11.08-.28.14-.37.55-.79.87-1.74,1.2-2.66.19-.53.26-1.81-.11-2.26-.07-.08-.21-.11-.3-.06-.04.02-.24.22-.26.26-.28.52-.54,1.03-.71,1.6-.37,1.27-.66,2.57-.96,3.86-.25,1.08-.45,2.3-.56,3.41-.04.37-.01.97-.11,1.31-.08.3-.42.26-.39-.04s.16-.68.21-.99c.19-1.01.3-2.06.44-3.07.15-1.11.26-2.22.37-3.34.07-.67.2-.98.03-1.67-.03-.12-.02-.29.05-.4s.22-.09.25.06c.02.09-.02.39-.03.51-.04.76-.14,1.53-.18,2.29,0,.04,0,.21.06.19.02,0,.13-.43.14-.49.04-.15.06-.35.1-.5.16-.6.44-1.16.65-1.74.15-.42.2-.81.47-1.15.05-.06.21-.26.26-.3.17-.13.29-.14.49-.06Z"/>
        <path class="cls-1" d="M10.07.22c.7.21,1.18.72,1.4,1.42.44,1.47.37,2.93-.26,4.33-.51,1.14-2,2.61-3.25,3.02-.05.02-.37.1-.4.09-.07-.03-.05-.1,0-.14.06-.04.28-.08.38-.13.62-.26,1.07-.6,1.55-1.01s.99-.81,1.28-1.4c.58-1.19.81-2.14.75-3.49-.04-.89-.16-1.49-.86-2.08-.51-.43-.91-.59-1.62-.53-.9.08-1.76.69-2.38,1.28-.29.28-.4.53-.61.89-.04.06-.09.1-.11.18-.14.06-.27.02-.28-.14-.02-.31.64-.98.88-1.18.82-.8,2.39-1.47,3.53-1.12Z"/>
        <path class="cls-1" d="M9.57,2.15c-.04.19-.13.39-.1.59.02.12.08.13.04.28-.03.13-.05.08-.1.14-.14.16-.21.49-.25.71-.18.97-.28,2.19-.33,3.17-.01.24,0,.25.04.47.02.12,0,.24-.15.24-.21,0-.19-.23-.19-.38.03-.77.16-1.66.25-2.42.06-.52.22-1.09.26-1.6.02-.21-.08-.38-.04-.57.05-.29.18-.59.25-.88.02-.07.05-.35.06-.37s.06-.03.08-.05c.02-.02-.03-.07.12-.05.27.04.1.43.07.6,0,.04,0,.09,0,.13Z"/>
        <path class="cls-1" d="M5.27,8.85s.08.05.09.05c.13.11.16.36.03.47-.06.05-.25.02-.3-.05-.09-.14-.02-.5.19-.47Z"/>
        <path class="cls-1" d="M13.77,4.21s-.04-.18-.04-.2c0-.11.11-.34.25-.26.03.02.18.25.18.28,0,0-.04.15-.04.16-.03.06-.12.08-.18.08-.03,0-.17-.05-.17-.06Z"/>
        <path class="cls-1" d="M13.49,2.25s.08.05.09.05c.13.11.16.36.03.47-.06.05-.25.02-.3-.05-.09-.14-.02-.5.19-.47Z"/>
      </g>
    </g>
  </g>
</svg>