<?xml version="1.0" encoding="UTF-8"?>
<svg id="Layer_2" data-name="Layer 2" xmlns="http://www.w3.org/2000/svg" viewBox="0 0 20.04 4.02">
  <defs>
    <style>
      .cls-1 {
        fill: #964015;
      }
    </style>
  </defs>
  <g id="Layer_1-2" data-name="Layer 1">
    <g id="bpfKCg.tif">
      <g>
        <path class="cls-1" d="M11.83,1.89c-.07.07-.3.18-.29.27,0,.04.15.3.19.35.06.1.15.18.21.28.11-.2.13-.48.24-.68.03-.05.2-.23.2-.25,0-.03-.09-.11-.07-.14.07-.09.17.03.23.02.04,0,.1-.08.14-.09.31-.1.57.11.54.43-.02.24-.35.26-.38.12-.02-.07.11-.17-.04-.18-.08,0-.17.07-.22.13-.09.12-.24.59-.28.75-.01.04,0,.1,0,.14-.01.04-.05.07-.06.11-.04.23.26.46.48.35.14-.07.15-.35.37-.38.4-.06.36.31.22.57-.18.33-.42.32-.74.19-.06-.03-.15-.1-.19-.11-.04-.01-.19,0-.2,0-.01-.01.03-.21-.16-.21-.03,0-.25.2-.26.23,0,.02.09.12,0,.17-.04-.01-.04-.1-.07-.11-.04,0-.22.09-.28.1-.12.03-.46.09-.57.07-.07-.02-.09-.09-.19-.05-.02.01-.11.11-.07-.01,0-.02.03-.02.02-.06-.03-.06-.16-.16-.21-.22-.5-.66.13-1.14.53-1.61-.04-.14-.03-.39-.1-.52-.03-.05-.12-.06-.12-.13,0-.06.09,0,.11-.07,0-.02-.03-.17-.01-.25.03-.24.22-.57.5-.55.2.01.64.19.76.35.06.08.14.34.13.43,0,.02-.13.26-.16.3-.04.08-.12.2-.18.26ZM11.55,1.02c-.04-.06-.19-.09-.26-.07-.03,0-.05.14-.06.15,0,0-.07-.06-.13-.02-.11.06.04.61.11.7.1.12.2.01.27-.08.08-.11.18-.3.16-.44,0-.02-.08-.23-.09-.24ZM11.58,3.45s.05-.03.05-.04c0,0-.05-.05-.04-.11s.09-.11.08-.16l-.49-.69c-.06-.04-.15.04-.23.05.12.15-.1.12-.13.16-.02.03-.08.29-.08.34-.02.17-.01.3.09.44.19.27.55.22.76,0Z"/>
        <path class="cls-1" d="M1.28,1.42s.13,0,.17,0c.06,0,.08.05.11.06.05.01.1,0,.14,0,.03,0,.16.21-.04.19-.13-.01-.12-.14-.28.06-.03,0-.15-.25-.14-.29,0-.02.02-.03.03-.03Z"/>
        <path class="cls-1" d="M11.91,1.95c.04.09-.02.11-.08.17-.1-.09-.03-.15.08-.17Z"/>
        <path class="cls-1" d="M1.31,2.4c.06-.06.15.04.11.09-.09.1-.14-.06-.11-.09Z"/>
        <path class="cls-1" d="M10.67.35s.1.06.1.07c-.06.06-.12.08-.17,0,.02-.01.06-.07.07-.07Z"/>
        <path class="cls-1" d="M6.26,0c0,.15-.13.18-.11,0h.11Z"/>
        <path class="cls-1" d="M4.84.09c.05.13-.01.17-.11.07l.11-.07Z"/>
        <path class="cls-1" d="M17.18.38c.16.07.41.19.58.24.13.03.43,0,.47.13.05.16-.15.77-.35.77-.31,0-.16-.5-.3-.66-.18-.2-.6-.2-.84-.11-.75.3-.61,1.43-.42,2.05.13.42.4.71.88.65.21-.03.59-.43.61-.65.03-.35-.2-.21-.31-.35-.09-.12.04-.36.16-.4.1-.03.57-.02.7-.01.12,0,.36.02.45.09.13.09.08.27-.04.34-.11.07-.37.04-.44.16-.05.09-.06.28-.1.37-.1.29-.56.8-.88.84-.43.05-1.24-.34-1.48-.71-.52-.81-.33-2.27.63-2.69.03-.01.14-.07.15-.07.04,0,.51,0,.54,0Z"/>
        <path class="cls-1" d="M5.14.38c.16.07.9.06,1.11.04.04,0,.02-.04.06-.05.05,0,.44,0,.47,0,0,0,.05.09.05.1,0,.17-.52.33-.55.49,0,.33,0,.67,0,1.01,0,.12-.04.28-.04.4-.02.43.13.88-.25,1.21-.44.37-1.2.36-1.48-.18-.19-.35-.02-.89.36-1.02.25-.08.51.3.34.47-.15.15-.38.08-.35.38.02.21.32.28.5.29.12,0,.24.02.33-.07.1-.11.06-.2.07-.32.06-.53.16-1.21.13-1.73,0-.11-.04-.39-.07-.49-.05-.14-.43-.2-.56-.19s-.27.09-.4,0c-.07-.04-.18-.21-.13-.29,0-.01.06-.01.09-.03.02,0,.02-.04.03-.04.04,0,.25,0,.28,0Z"/>
        <path class="cls-1" d="M1.51,1.83c.17,0,.66-.04.79.01.1.04.12.14.08.24-.06.13-.43.13-.56.15-.52.08-1.15.2-1.67.13-.2-.03-.19-.29-.06-.37.47-.09.94-.14,1.41-.15Z"/>
        <path class="cls-1" d="M19.63,3.03c.1-.02.29.06.34.15.02.03.07.21.07.25.05.43-.62.61-.68.12-.02-.16.09-.48.27-.52Z"/>
        <path class="cls-1" d="M7.72,3.03c.36-.05.52.52.25.72-.34.26-.62-.06-.52-.43.04-.13.12-.27.26-.29Z"/>
      </g>
    </g>
  </g>
</svg>